<svg fill="none" height="400" viewBox="0 0 400 400" width="400" xmlns="http://www.w3.org/2000/svg"><g stroke="#000" stroke-linecap="round" stroke-linejoin="round" stroke-opacity=".9" stroke-width="16"><path d="m107.144 151.822c18.243-28.673 65.789-.928 38.258 26.7-23.674 23.748-48.1855-3.443-36.593-26.7"/><path d="m122.974 212.302c2.179 15.888-41.6759 111.867-31.6096 95.259"/><path d="m115.677 251.155c45.844-27.646 16.637 37.641 33.191 29.292"/><path d="m123.053 212.302c21.774-5.254 39.277-15.492 57.778-25.834"/><path d="m354.165 160.635c-101.927 63.113-201.614 133.713-307.3305 184.524"/><path d="m183.183 91.4691c115.14-118.5827 193.767 85.3809 79.575 123.8459-64.883 21.857-112.173-76.243-74.949-116.3668"/></g></svg>